<?xml version="1.0" encoding="UTF-8"?>
<svg xmlns="http://www.w3.org/2000/svg" version="1.1" viewBox="0 0 250.5 250.5">
  <defs>
    <style>
      .cls-1 {
        fill: #fff;
        fill-rule: evenodd;
      }

      .cls-2 {
        fill: #ff0420;
      }
    </style>
  </defs>
  <!-- Generator: Adobe Illustrator 28.7.1, SVG Export Plug-In . SVG Version: 1.2.0 Build 142)  -->
  <g>
    <g id="Emoji">
      <g>
        <polygon class="cls-2" points="125.25 39.825 142.9847566 59.0629873 167.9625 51.2697799 173.7022561 76.7977439 199.2302201 82.5375 191.4370127 107.5152434 210.675 125.25 191.4370127 142.9847566 199.2302201 167.9625 173.7022561 173.7022561 167.9625 199.2302201 142.9847566 191.4370127 125.25 210.675 107.5152434 191.4370127 82.5375 199.2302201 76.7977439 173.7022561 51.2697799 167.9625 59.0629873 142.9847566 39.825 125.25 59.0629873 107.5152434 51.2697799 82.5375 76.7977439 76.7977439 82.5375 51.2697799 107.5152434 59.0629873 125.25 39.825"/>
        <path class="cls-1" d="M117.2901917,124.1099436c1.4654011,0,2.6531223,1.1877212,2.6531223,2.6531223,0,2.9308023,2.3758837,5.3062378,5.306686,5.3062378s5.3062378-2.3754356,5.3062378-5.3062378c0-1.4654011,1.1881625-2.6531223,2.6535637-2.6531223,1.4649598,0,2.6531223,1.1877212,2.6531223,2.6531223,0,5.8611632-4.7517674,10.6129238-10.6129238,10.6129238-5.8616046,0-10.6129238-4.7517606-10.6129238-10.6129238,0-1.4654011,1.1877144-2.6531223,2.6531155-2.6531223ZM110.8847738,114.3740713v.2042625c-4.8424338,2.4135577-8.4705396,6.0415313-10.8840008,10.8842375h-.2041819c-2.4134612-4.8427061-6.041567-8.4706798-10.8843174-10.8842375v-.2042625c4.8427504-2.4134786,8.4708562-6.0415313,10.8843174-10.8840001h.2041819c2.4134612,4.8424687,6.041567,8.4705215,10.8840008,10.8840001ZM150.499227,103.4900712h.2041819c2.4134612,4.8424687,6.041567,8.4705215,10.8843174,10.8840001v.2042625c-4.8427504,2.4135577-8.4708562,6.0415313-10.8843174,10.8842375h-.2041819c-2.4134612-4.8427061-6.041567-8.4706798-10.8840008-10.8842375v-.2042625c4.8424338-2.4134786,8.4705396-6.0415313,10.8840008-10.8840001Z"/>
      </g>
    </g>
  </g>
</svg>